<svg xmlns="http://www.w3.org/2000/svg" viewBox="0 0 414.38 63.03"><defs><style>.cls-1{fill:#ffd9ca;}.cls-2{fill:#fba7a7;}.cls-3{fill:#c87676;}.cls-4{fill:#917575;}.cls-5{fill:#749875;}</style></defs><title>Asset 5</title><g id="Layer_2" data-name="Layer 2"><g id="Layer_7" data-name="Layer 7"><g id="Layer_1-2" data-name="Layer 1"><path class="cls-1" d="M42.9,60l-.07-38.82L23.85,54H22.23l-19-32.67V60H0V14.68H2.78L23.07,49.74,43.36,14.68h2.72L46.14,60Z"/><path class="cls-1" d="M65.49,58.1A15.8,15.8,0,0,1,59.43,52a17.71,17.71,0,0,1-2.21-8.84,17.75,17.75,0,0,1,2.21-8.85,15.84,15.84,0,0,1,6.06-6.12,18,18,0,0,1,17.3,0,15.91,15.91,0,0,1,6.06,6.12,17.74,17.74,0,0,1,2.2,8.85A17.7,17.7,0,0,1,88.85,52a15.87,15.87,0,0,1-6.06,6.13,18.11,18.11,0,0,1-17.3,0ZM81.1,55.57a12.91,12.91,0,0,0,4.86-5,15.08,15.08,0,0,0,1.79-7.39A15.05,15.05,0,0,0,86,35.74a12.93,12.93,0,0,0-4.86-5.06,14.31,14.31,0,0,0-13.93,0,13.07,13.07,0,0,0-4.86,5.06,15,15,0,0,0-1.78,7.39,15.08,15.08,0,0,0,1.78,7.39,13,13,0,0,0,4.86,5,14.24,14.24,0,0,0,13.93,0Z"/><path class="cls-1" d="M153.1,29.65q3.6,3.69,3.6,10.63V60h-3.24V40.53q0-5.7-2.79-8.68a10.13,10.13,0,0,0-7.77-3,11.79,11.79,0,0,0-9,3.56Q130.51,36,130.52,42V60h-3.24V40.53q0-5.7-2.79-8.68a10.15,10.15,0,0,0-7.77-3,11.82,11.82,0,0,0-9,3.56Q104.34,36,104.34,42V60H101.1V26.21h3.11v7.26a12.48,12.48,0,0,1,5-5.54,15.29,15.29,0,0,1,7.94-2A14.1,14.1,0,0,1,125,28a11.28,11.28,0,0,1,4.57,6.09,13.18,13.18,0,0,1,5.28-6A15.73,15.73,0,0,1,143.22,26Q149.51,26,153.1,29.65Z"/><path class="cls-1" d="M174.68,58.1A15.87,15.87,0,0,1,168.62,52a17.7,17.7,0,0,1-2.2-8.84,17.74,17.74,0,0,1,2.2-8.85,15.91,15.91,0,0,1,6.06-6.12,18,18,0,0,1,17.3,0,15.93,15.93,0,0,1,6.07,6.12,17.85,17.85,0,0,1,2.2,8.85,17.81,17.81,0,0,1-2.2,8.84A15.89,15.89,0,0,1,192,58.1a18.11,18.11,0,0,1-17.3,0Zm15.62-2.53a13,13,0,0,0,4.86-5,15.08,15.08,0,0,0,1.78-7.39,15,15,0,0,0-1.78-7.39,13.07,13.07,0,0,0-4.86-5.06,14.31,14.31,0,0,0-13.93,0,13.07,13.07,0,0,0-4.86,5.06,15,15,0,0,0-1.78,7.39,15.08,15.08,0,0,0,1.78,7.39,13,13,0,0,0,4.86,5,14.24,14.24,0,0,0,13.93,0Z"/><path class="cls-1" d="M259.48,60,248.66,44.88a34.15,34.15,0,0,1-4.41.32h-13V60H228V14.68h16.26q8.56,0,13.42,4.05T262.53,30a14.58,14.58,0,0,1-2.76,9,14.55,14.55,0,0,1-7.87,5.15L263.24,60ZM244.25,42.28q7.26,0,11.09-3.2T259.16,30q0-5.89-3.82-9.1t-11.09-3.21h-13V42.28Z"/><path class="cls-1" d="M278.18,58.1A15.87,15.87,0,0,1,272.12,52a17.7,17.7,0,0,1-2.2-8.84,17.74,17.74,0,0,1,2.2-8.85,15.91,15.91,0,0,1,6.06-6.12,18,18,0,0,1,17.3,0,15.91,15.91,0,0,1,6.06,6.12,17.75,17.75,0,0,1,2.21,8.85A17.71,17.71,0,0,1,301.54,52a15.87,15.87,0,0,1-6.06,6.13,18.11,18.11,0,0,1-17.3,0Zm15.62-2.53a13,13,0,0,0,4.86-5,15.08,15.08,0,0,0,1.78-7.39,15,15,0,0,0-1.78-7.39,13.07,13.07,0,0,0-4.86-5.06,14.31,14.31,0,0,0-13.93,0A12.93,12.93,0,0,0,275,35.74a15.05,15.05,0,0,0-1.79,7.39A15.08,15.08,0,0,0,275,50.52a12.91,12.91,0,0,0,4.86,5,14.24,14.24,0,0,0,13.93,0Z"/><path class="cls-1" d="M330.58,57.9a8.21,8.21,0,0,1-3.08,1.79,12.14,12.14,0,0,1-3.86.61,9.12,9.12,0,0,1-6.8-2.43,9.22,9.22,0,0,1-2.4-6.77V29h-6.22V26.21h6.22V18.83h3.24v7.38h10.76V29H317.68V50.77a7.16,7.16,0,0,0,1.59,5,6.08,6.08,0,0,0,4.7,1.71,7.51,7.51,0,0,0,5.24-1.87Z"/><path class="cls-1" d="M366.16,29.65q3.69,3.69,3.69,10.63V60h-3.24V40.53q0-5.7-2.89-8.68c-1.92-2-4.61-3-8.07-3q-6,0-9.39,3.56T342.83,42V60h-3.25V12h3.25V33.28A12.36,12.36,0,0,1,348,27.87a16.34,16.34,0,0,1,8.1-1.92Q362.45,26,366.16,29.65Z"/><path class="cls-1" d="M340.4,14.22c-1.54-1.13-.46-4.85-.31-5.38.64-2.18,2.39-5,5.08-5.69,2.28-.61,3.46.72,5.38-.3s2.22-3,2.54-2.85c.47.17.23,4.5-2.23,8.23C348,12.62,342.34,15.65,340.4,14.22Z"/></g><g id="Layer_6" data-name="Layer 6"><g id="Layer_3" data-name="Layer 3"><g id="Layer_4" data-name="Layer 4"><path class="cls-2" d="M395.81,60a5,5,0,0,1,.77-1.9A3.74,3.74,0,0,1,399.47,57a5.2,5.2,0,0,0,1.93-.23c1-.43,1.56-1.63,2.6-1.9.81-.22,1.67.2,2.5.06,1.5-.26,2.17-2.11,3.49-2.89a3.65,3.65,0,0,1,2.41-.39,1.94,1.94,0,0,1,.33.07,29.52,29.52,0,0,0,1.58-7.18c.14-2.45.41-7.31-2.79-11.72-.58-.81-4.5-6-11.12-6.16A13.27,13.27,0,0,0,391.25,30a12.56,12.56,0,0,0-3.11,4.62l0,.05a8.38,8.38,0,0,0-.19,1.59c-.16,4.37,2.88,7.69,4.17,8.94a15.13,15.13,0,0,1-3-2.58,9.66,9.66,0,0,1-2.39-4.77,7.83,7.83,0,0,1,.27-3.21,7.27,7.27,0,0,0-2.75.33c-3.46,1.13-5.64,4.92-6,8-.84,7.79,10.23,14.8,15.1,16.69l2.26.86C395.74,60.32,395.77,60.17,395.81,60Z"/><path class="cls-3" d="M386.78,37.85a9.66,9.66,0,0,0,2.39,4.77,15.13,15.13,0,0,0,3,2.58c-1.29-1.25-4.33-4.57-4.17-8.94a8.38,8.38,0,0,1,.19-1.59l0-.05a.94.94,0,0,0-.06.15,7.22,7.22,0,0,0-1-.13A7.83,7.83,0,0,0,386.78,37.85Z"/><path class="cls-3" d="M410,52c-1.32.78-2,2.63-3.49,2.89-.83.14-1.69-.28-2.5-.06-1,.27-1.61,1.47-2.6,1.9a5.2,5.2,0,0,1-1.93.23,3.74,3.74,0,0,0-2.89,1.16,5,5,0,0,0-.77,1.9c0,.15-.07.3-.11.45a49.76,49.76,0,0,0,5.19,1.62c1.29.31,1.69.5,3.18.8a8.25,8.25,0,0,0,2.29.1,3.85,3.85,0,0,0,2-.6,4.51,4.51,0,0,0,1.3-1.69c.79-2,0-.2,2.08-6.06.39-1.09.72-2.07,1-3a1.94,1.94,0,0,0-.33-.07A3.65,3.65,0,0,0,410,52Z"/></g></g><g id="Layer_5" data-name="Layer 5"><path class="cls-4" d="M388.17,34.67a3.14,3.14,0,0,0-.79.59c-.44.47-.45.79-.6.8-.42,0-1.33-2.46-1.19-5.17a11,11,0,0,1,.8-3.57,5.46,5.46,0,0,1,1.78-.4,5.4,5.4,0,0,1,1.79.2,18.55,18.55,0,0,0-.79,2A19.34,19.34,0,0,0,388.17,34.67Z"/><path class="cls-5" d="M387.38,28.71a7.2,7.2,0,0,1,0-4.57,6.89,6.89,0,0,1,5.17-4.57c1.95-.28,2.62.84,5.36.79a10.75,10.75,0,0,0,3.78-.79,18.9,18.9,0,0,0-2,1.78c-2.48,2.54-2.92,4.3-4.17,5.57S392.16,29.25,387.38,28.71Z"/></g></g></g></g></svg>