<svg xmlns="http://www.w3.org/2000/svg" viewBox="0 0 110.97 15.9"><defs><style>.cls-1{fill:#d18376;}.cls-2{fill:#52a073;}.cls-3{fill:#f8a495;}.cls-4{fill:#7bc793;}.cls-5{fill:#fcd3c7;}</style></defs><title>Asset 2</title><g id="Layer_2" data-name="Layer 2"><g id="Layer_16" data-name="Layer 16"><path class="cls-1" d="M103.25,6.88l3.34-.81a2.74,2.74,0,0,1,0,1.85,3.07,3.07,0,0,1-1.9,1.62c-.21.09-2,.79-2.48.14C101.82,9.19,102.2,8,103.25,6.88Z"/><path class="cls-2" d="M105.38,6.4a1.73,1.73,0,0,1,.71-.73,2.73,2.73,0,0,1,2.08.13,7.39,7.39,0,0,1,1.57.72.15.15,0,0,1,.09.18.12.12,0,0,1-.09.09,8.65,8.65,0,0,1-1.3.09,9.43,9.43,0,0,1-3.06-.48"/><path class="cls-3" d="M105.39,6.23c0-.51-2.33-1.25-4.23-.4a4.13,4.13,0,0,0-1.63,1.3,4,4,0,0,0-.72,2.12A5.14,5.14,0,0,0,99,10.42a7.31,7.31,0,0,0,1,1.94c.87,1.36.84,1.16,1,1.58.39.84.36,1.32.85,1.62a1.76,1.76,0,0,0,.9.23,2.08,2.08,0,0,0,.91-.23c.58-.25,1.2-.43,1.8-.67a21.49,21.49,0,0,1,2.07-.63c.52-.19,2.66-1,3.2-2.89a4,4,0,0,0-1.21-3.88,4.39,4.39,0,0,0-3.7-1,5.8,5.8,0,0,0-1.08.81,5.21,5.21,0,0,0-1,1.22,3.11,3.11,0,0,1,.63-1.44C105,6.51,105.41,6.44,105.39,6.23Z"/><path class="cls-1" d="M102.82,15.9a2.17,2.17,0,0,1-1-.16,1.56,1.56,0,0,1-.59-.92A7.29,7.29,0,0,0,101,14a3.33,3.33,0,0,0-.25-.42c-.13-.17-.29-.5-.74-1.19a12.44,12.44,0,0,1-1.27-2.13,5.27,5.27,0,0,1-.18-1.19,3.94,3.94,0,0,1,.73-2.14,4.25,4.25,0,0,1,1.64-1.33,5.33,5.33,0,0,1,4.2.25c.21.13.32.26.33.38s-.1.2-.27.32a2.52,2.52,0,0,0-.64.57A2.81,2.81,0,0,0,104,8.28a5.6,5.6,0,0,1,.82-1,5.19,5.19,0,0,1,1.09-.82h0a4.4,4.4,0,0,1,3.74,1,4,4,0,0,1,1.23,3.92c-.25.89-1,2.11-3.23,2.92-.29.1-.51.15-.75.21a8.38,8.38,0,0,0-1.32.42l-.79.29c-.34.12-.69.24-1,.38h0a1.94,1.94,0,0,1-.9.29Zm.24-10.42a4.61,4.61,0,0,0-1.89.39,4,4,0,0,0-1.6,1.29,3.84,3.84,0,0,0-.71,2.09A4.92,4.92,0,0,0,99,10.41a7.56,7.56,0,0,0,1,1.93c.44.69.65,1,.77,1.15a1.66,1.66,0,0,1,.27.43,6.54,6.54,0,0,1,.28.73c.15.41.24.68.56.87a1.61,1.61,0,0,0,.87.22h0a2.13,2.13,0,0,0,.87-.21h0c.33-.14.68-.27,1-.39s.52-.18.78-.29a8.79,8.79,0,0,1,1.34-.42,5.3,5.3,0,0,0,.74-.21c2.18-.79,2.93-2,3.17-2.85a4,4,0,0,0-1.2-3.83,4.32,4.32,0,0,0-3.65-1,5.68,5.68,0,0,0-1.07.81,5.19,5.19,0,0,0-.94,1.2l-.13.23,0-.26a3.26,3.26,0,0,1,.5-1.51,3.07,3.07,0,0,1,.66-.58c.16-.11.24-.17.23-.24s-.1-.2-.28-.3A3.57,3.57,0,0,0,103.06,5.48Z"/><path class="cls-4" d="M105.06,6.79a1.3,1.3,0,0,1-.59-.85,1.35,1.35,0,0,1,.22-1,.13.13,0,0,1,.09,0,.1.1,0,0,1,.09,0,1.59,1.59,0,0,1,.41.81,1.65,1.65,0,0,1-.13,1s0,0-.05,0Z"/></g><g id="Layer_5" data-name="Layer 5"><path class="cls-5" d="M11.25,15.75V5.57l-5,8.6H5.83L.85,5.6V15.75H0V3.85H.73l5.32,9.2,5.32-9.2h.72v11.9Z"/><path class="cls-5" d="M17.18,15.24a4,4,0,0,1-1.59-1.61A4.59,4.59,0,0,1,15,11.31,4.62,4.62,0,0,1,15.59,9a4.08,4.08,0,0,1,1.59-1.6,4.73,4.73,0,0,1,4.54,0A4.21,4.21,0,0,1,23.31,9a4.72,4.72,0,0,1,.57,2.32,4.69,4.69,0,0,1-.57,2.32,4.17,4.17,0,0,1-1.59,1.61,4.73,4.73,0,0,1-4.54,0Zm4.1-.66a3.46,3.46,0,0,0,1.27-1.33A4,4,0,0,0,23,11.31a3.94,3.94,0,0,0-.47-1.93,3.46,3.46,0,0,0-1.27-1.33,3.73,3.73,0,0,0-3.66,0,3.39,3.39,0,0,0-1.27,1.33,3.83,3.83,0,0,0-.47,1.93,3.87,3.87,0,0,0,.47,1.94,3.39,3.39,0,0,0,1.27,1.33,3.8,3.8,0,0,0,3.66,0Z"/><path class="cls-5" d="M40.16,7.78a3.82,3.82,0,0,1,1,2.79v5.18h-.85V10.63a3.2,3.2,0,0,0-.74-2.27,2.61,2.61,0,0,0-2-.79,3.12,3.12,0,0,0-2.37.94A3.53,3.53,0,0,0,34.24,11v4.73h-.85V10.63a3.24,3.24,0,0,0-.73-2.27,2.64,2.64,0,0,0-2-.79,3.09,3.09,0,0,0-2.37.94A3.49,3.49,0,0,0,27.37,11v4.73h-.85V6.88h.82v1.9a3.23,3.23,0,0,1,1.31-1.45,4,4,0,0,1,2.09-.52,3.69,3.69,0,0,1,2,.54A2.92,2.92,0,0,1,34,9a3.44,3.44,0,0,1,1.39-1.56,4.08,4.08,0,0,1,2.2-.58A3.43,3.43,0,0,1,40.16,7.78Z"/><path class="cls-5" d="M45.82,15.24a4.17,4.17,0,0,1-1.59-1.61,4.69,4.69,0,0,1-.57-2.32A4.72,4.72,0,0,1,44.23,9a4.21,4.21,0,0,1,1.59-1.6,4.73,4.73,0,0,1,4.54,0A4.08,4.08,0,0,1,52,9a4.62,4.62,0,0,1,.58,2.32A4.59,4.59,0,0,1,52,13.63a4,4,0,0,1-1.59,1.61,4.73,4.73,0,0,1-4.54,0Zm4.1-.66a3.39,3.39,0,0,0,1.27-1.33,3.87,3.87,0,0,0,.47-1.94,3.83,3.83,0,0,0-.47-1.93,3.39,3.39,0,0,0-1.27-1.33,3.73,3.73,0,0,0-3.66,0A3.46,3.46,0,0,0,45,9.38a3.94,3.94,0,0,0-.47,1.93A4,4,0,0,0,45,13.25a3.46,3.46,0,0,0,1.27,1.33,3.8,3.8,0,0,0,3.66,0Z"/><path class="cls-5" d="M68.07,15.75l-2.84-4a8.29,8.29,0,0,1-1.16.09h-3.4v3.89h-.86V3.85h4.26a5.32,5.32,0,0,1,3.52,1.06,3.63,3.63,0,0,1,1.28,3,3.78,3.78,0,0,1-.73,2.37,3.89,3.89,0,0,1-2.06,1.36l3,4.16Zm-4-4.66A4.43,4.43,0,0,0,67,10.25a2.94,2.94,0,0,0,1-2.39,2.94,2.94,0,0,0-1-2.39,4.43,4.43,0,0,0-2.91-.84h-3.4v6.46Z"/><path class="cls-5" d="M73,15.24a4.17,4.17,0,0,1-1.59-1.61,4.93,4.93,0,0,1,0-4.64A4.21,4.21,0,0,1,73,7.39a4.73,4.73,0,0,1,4.54,0A4.14,4.14,0,0,1,79.1,9a4.62,4.62,0,0,1,.58,2.32,4.59,4.59,0,0,1-.58,2.32,4.1,4.1,0,0,1-1.59,1.61,4.73,4.73,0,0,1-4.54,0Zm4.1-.66a3.39,3.39,0,0,0,1.27-1.33,3.87,3.87,0,0,0,.47-1.94,3.83,3.83,0,0,0-.47-1.93,3.39,3.39,0,0,0-1.27-1.33,3.73,3.73,0,0,0-3.66,0,3.46,3.46,0,0,0-1.27,1.33,3.94,3.94,0,0,0-.47,1.93,4,4,0,0,0,.47,1.94,3.46,3.46,0,0,0,1.27,1.33,3.8,3.8,0,0,0,3.66,0Z"/><path class="cls-5" d="M86.72,15.19a2.3,2.3,0,0,1-.81.47,3.39,3.39,0,0,1-1,.16,2.39,2.39,0,0,1-1.79-.64,2.42,2.42,0,0,1-.63-1.78V7.61H80.85V6.88h1.63V4.94h.85V6.88h2.83v.73H83.33v5.71a1.87,1.87,0,0,0,.42,1.32,1.6,1.6,0,0,0,1.23.45,2,2,0,0,0,1.38-.5Z"/><path class="cls-5" d="M96.05,7.78a3.74,3.74,0,0,1,1,2.79v5.18h-.85V10.63a3.12,3.12,0,0,0-.76-2.27,2.78,2.78,0,0,0-2.12-.79,3.27,3.27,0,0,0-2.46.94,3.46,3.46,0,0,0-.9,2.51v4.73h-.85V3.14h.85V8.73a3.27,3.27,0,0,1,1.36-1.42,4.34,4.34,0,0,1,2.12-.5A3.55,3.55,0,0,1,96.05,7.78Z"/><path class="cls-5" d="M89.29,3.73c-.4-.3-.12-1.27-.08-1.41A2.17,2.17,0,0,1,90.54.83c.6-.16.91.18,1.42-.08s.58-.78.66-.75A3,3,0,0,1,92,2.16C91.28,3.31,89.8,4.11,89.29,3.73Z"/></g></g></svg>