<svg xmlns="http://www.w3.org/2000/svg" viewBox="0 0 96.84 85.71"><defs><style>.cls-1{fill:#d18376;}.cls-2{fill:#52a073;}.cls-3{fill:#f8a495;}.cls-4{fill:#7bc793;}</style></defs><title>Asset 3</title><g id="Layer_2" data-name="Layer 2"><g id="Layer_5" data-name="Layer 5"><path class="cls-1" d="M36.71,15.46l26-6.33a21.12,21.12,0,0,1,0,14.41C59.63,31.42,52.22,34.44,48,36.18c-1.71.7-15.31,6.08-19.32,1.06C25.58,33.42,28.51,24.17,36.71,15.46Z"/><path class="cls-2" d="M53.28,11.72A13.52,13.52,0,0,1,58.84,6C63.62,3.49,68.82,5.11,75,7a53.46,53.46,0,0,1,12.29,5.62,1.22,1.22,0,0,1,.7,1.4,1.15,1.15,0,0,1-.7.7,76.87,76.87,0,0,1-10.19.71,77.89,77.89,0,0,1-23.82-3.74"/><path class="cls-3" d="M53.39,10.36C53.11,6.41,35.18.6,20.37,7.2A31.71,31.71,0,0,0,7.73,17.39,30.59,30.59,0,0,0,2.11,33.9,38.41,38.41,0,0,0,3.51,43c.81,2.88,2,5.69,8.08,15.11,6.82,10.61,6.55,9,8.08,12.29,3,6.57,2.84,10.26,6.68,12.65a13.48,13.48,0,0,0,7,1.75,16.82,16.82,0,0,0,7-1.75c4.59-2,9.4-3.41,14.05-5.27,8.31-3.33,10.84-3,16.16-4.92,4-1.46,20.74-7.56,24.94-22.48,3-10.58-1.28-22.63-9.49-30.21-11.94-11-27.31-8-28.8-7.73A42.45,42.45,0,0,0,41.45,28.28,24.18,24.18,0,0,1,46.37,17C50.05,12.52,53.51,12,53.39,10.36Z"/><path class="cls-1" d="M33.32,85.71c-3.51,0-6.18-.45-7.51-1.28-2.67-1.66-3.48-4-4.6-7.18A63.6,63.6,0,0,0,19,70.93a14.63,14.63,0,0,0-2-3.27c-1-1.34-2.26-3.92-5.73-9.33-5.83-9.07-9-13.54-9.88-16.61A38.87,38.87,0,0,1,0,32.5,30.82,30.82,0,0,1,5.69,15.78,32.05,32.05,0,0,1,18.47,5.48C30.22.23,45.66,4.11,51.2,7.43c1.6,1,2.48,2,2.54,2.91s-.79,1.59-2.1,2.49a21.42,21.42,0,0,0-5,4.43,23,23,0,0,0-4.42,9.06A42.75,42.75,0,0,1,57.08,12.17l.1,0c1.72-.37,17.15-3.25,29.12,7.81,8.63,8,12.48,20.26,9.59,30.56C94,57.4,88,66.94,70.73,73.22a49.55,49.55,0,0,1-5.8,1.66,64.64,64.64,0,0,0-10.35,3.25c-2,.82-4.12,1.56-6.15,2.27-2.61.93-5.31,1.88-7.89,3l-.15.06c-1.67.73-3.94,2.24-7,2.25ZM35.24,4.54a36.25,36.25,0,0,0-14.72,3A31.49,31.49,0,0,0,8,17.59,30.21,30.21,0,0,0,2.46,33.91a38.1,38.1,0,0,0,1.39,9c.84,3,2.26,6,8,15C15.35,63.34,17,65.56,18,66.89a15.63,15.63,0,0,1,2,3.39A60.63,60.63,0,0,1,22.23,76c1.11,3.18,1.84,5.28,4.3,6.81a12.67,12.67,0,0,0,6.79,1.7h0a16,16,0,0,0,6.74-1.66l.15-.07c2.6-1.12,5.31-2.08,7.94-3,2-.71,4.1-1.45,6.12-2.26A64.73,64.73,0,0,1,64.77,74.2a49.64,49.64,0,0,0,5.72-1.64c17-6.18,22.82-15.51,24.72-22.25,2.83-10.06-.94-22-9.39-29.85C74.23,9.74,59.31,12.4,57.38,12.8A42.21,42.21,0,0,0,41.76,28.45l-1,1.74.34-2c.78-4.45,1.41-8.64,3.94-11.76a22.11,22.11,0,0,1,5.15-4.56C51.43,11.05,52,10.61,52,10s-.83-1.54-2.2-2.36C46.64,5.79,41.84,4.54,35.24,4.54Z"/><path class="cls-4" d="M50.76,14.75a10.24,10.24,0,0,1-4.57-6.67A10.29,10.29,0,0,1,48,.35a.93.93,0,0,1,.7-.35.9.9,0,0,1,.7.35,12.73,12.73,0,0,1,3.17,6.32,12.72,12.72,0,0,1-1.06,7.73.56.56,0,0,1-.35.35A.5.5,0,0,1,50.76,14.75Z"/></g></g></svg>